<svg width="24" height="24" viewBox="0 0 24 24" fill="none" xmlns="http://www.w3.org/2000/svg">
<g clip-path="url(#clip0_60_9)">
<path fill-rule="evenodd" clip-rule="evenodd" d="M5 16.2C5 16.6418 5.4477 17 6 17H18C18.5523 17 19 16.6418 19 16.2C19 15.7582 18.5523 15.4 18 15.4L6 15.4C5.4477 15.4 5 15.7582 5 16.2ZM5 12.2C5 12.6418 5.4477 13 6 13L14 13C14.5523 13 15 12.6418 15 12.2C15 11.7582 14.5523 11.4 14 11.4L6 11.4C5.4477 11.4 5 11.7582 5 12.2ZM6 9C5.4477 9 5 8.64184 5 8.2C5 7.75816 5.4477 7.4 6 7.4L18 7.4C18.5523 7.4 19 7.75816 19 8.2C19 8.64184 18.5523 9 18 9L6 9Z" fill="black"/>
</g>
<defs>
<clipPath id="clip0_60_9">
<rect width="24" height="24" fill="white" transform="matrix(-1 0 0 -1 24 24)"/>
</clipPath>
</defs>
</svg>
