<svg width="100" height="100" viewBox="0 0 100 100" fill="none" xmlns="http://www.w3.org/2000/svg">
<path d="M49.939 88C55.039 88 59.139 84 59.139 79H40.739C40.739 84 44.839 88 49.939 88Z" fill="black"/>
<path d="M76.439 61.1C75.839 60.5 75.339 59.8 74.939 59.1V59C74.939 58.5 74.739 58 74.439 57.7C74.339 57.2 74.239 56.6 74.239 56C74.239 56 74.239 53.8 74.239 50.6C67.039 47.7 61.939 40.7 61.939 32.5C61.939 29.6 62.639 26.8 63.739 24.3C62.839 23.6 61.939 23 60.939 22.5C60.639 16.7 55.839 12 49.939 12C44.039 12 39.239 16.7 38.939 22.5C30.439 27 25.639 36.6 25.639 45.2C25.639 51.1 25.639 56 25.639 56C25.639 57.9 24.839 59.8 23.439 61.1L21.239 63.1C18.339 65.7 18.239 70.3 21.039 73C22.339 74.3 24.039 75 25.839 75H45.339H54.539H74.039C75.839 75 77.539 74.3 78.839 73C81.539 70.2 81.439 65.7 78.639 63.1L76.439 61.1ZM49.939 16C53.039 16 55.639 18 56.539 20.8C54.639 20.3 52.639 20 50.539 20H49.239C47.139 20 45.139 20.3 43.239 20.8C44.239 18 46.839 16 49.939 16Z" fill="black"/>
<path d="M23.5638 61.1C24.1638 60.5 24.6638 59.8 25.0637 59.1V59C25.0637 58.5 25.2637 58 25.5637 57.7C25.6637 57.2 25.7637 56.6 25.7637 56C25.7637 56 25.7637 53.8 25.7637 50.6C32.9634 47.7 38.0631 40.7 38.0631 32.5C38.0631 29.6 37.3631 26.8 36.2632 24.3C37.1632 23.6 38.0631 23 39.0631 22.5C39.3631 16.7 44.1628 12 50.0625 12C55.9622 12 60.762 16.7 61.062 22.5C69.5616 27 74.3613 36.6 74.3613 45.2C74.3613 51.1 74.3613 56 74.3613 56C74.3613 57.9 75.1613 59.8 76.5612 61.1L78.7611 63.1C81.661 65.7 81.761 70.3 78.9611 73C77.6612 74.3 75.9613 75 74.1614 75H54.6623H45.4628H25.9637C24.1638 75 22.4639 74.3 21.1639 73C18.4641 70.2 18.5641 65.7 21.3639 63.1L23.5638 61.1ZM50.0625 16C46.9627 16 44.3628 18 43.4629 20.8C45.3628 20.3 47.3627 20 49.4626 20H50.7625C52.8624 20 54.8623 20.3 56.7622 20.8C55.7623 18 53.1624 16 50.0625 16Z" fill="black"/>
</svg>
