<svg width="100" height="100" viewBox="0 0 100 100" fill="none" xmlns="http://www.w3.org/2000/svg">
<path d="M42.9388 88C48.0388 88 52.1388 84 52.1388 79H33.7388C33.7388 84 37.8388 88 42.9388 88Z" fill="white"/>
<path d="M69.439 61.1C68.839 60.5 68.339 59.8 67.939 59.1V59C67.939 58.5 67.739 58 67.439 57.7C67.339 57.2 67.239 56.6 67.239 56C67.239 56 67.239 53.8 67.239 50.6C60.039 47.7 54.939 40.7 54.939 32.5C54.939 29.6 55.639 26.8 56.739 24.3C55.839 23.6 54.939 23 53.939 22.5C53.639 16.7 48.839 12 42.939 12C37.039 12 32.239 16.7 31.939 22.5C23.439 27 18.639 36.6 18.639 45.2C18.639 51.1 18.639 56 18.639 56C18.639 57.9 17.839 59.8 16.439 61.1L14.239 63.1C11.339 65.7 11.239 70.3 14.039 73C15.339 74.3 17.039 75 18.839 75H38.339H47.539H67.039C68.839 75 70.539 74.3 71.839 73C74.539 70.2 74.439 65.7 71.639 63.1L69.439 61.1ZM42.939 16C46.039 16 48.639 18 49.539 20.8C47.639 20.3 45.639 20 43.539 20H42.239C40.139 20 38.139 20.3 36.239 20.8C37.239 18 39.839 16 42.939 16Z" fill="white"/>
<path d="M73.439 48C81.4471 48 87.939 41.5081 87.939 33.5C87.939 25.4919 81.4471 19 73.439 19C65.4308 19 58.939 25.4919 58.939 33.5C58.939 41.5081 65.4308 48 73.439 48Z" fill="#FF0000"/>
</svg>
